<mxfile host="app.diagrams.net" modified="2024-06-19T11:59:29.499Z" agent="Mozilla/5.0 (Windows NT 10.0; Win64; x64) AppleWebKit/537.36 (KHTML, like Gecko) Chrome/124.0.0.0 Safari/537.36" version="24.5.5" etag="nYUJXg4VZvIUeyMc9SgM" type="github">
  <diagram name="StrÃ¡nka-1" id="k0guJk90SBRWaPRDQqzB">
    <mxGraphModel>
      <root>
        <mxCell id="0" />
        <mxCell id="1" parent="0" />
      </root>
    </mxGraphModel>
  </diagram>
</mxfile>
